<?xml version="1.0" encoding="UTF-8"?><svg id="uuid-d584f8d6-49cb-4e9c-8b6c-98337d153f69" xmlns="http://www.w3.org/2000/svg" viewBox="0 0 2421.1581 942.1825"><path d="M329.6972,669.1303c41.3966-57.8238,67.3661-104.2254,82.3902-151.7169-4.1374-28.1186-9.9908-48.4436-18.2228-66.2008-14.1475,125.0858-76.0668,234.6083-205.0685,381.6447,74.6131-85.0441,121.7715-135.2812,142.9112-150.7291-6.6599,8.1016-14.1911,17.4519-22.5903,28.0339,8.8308-11.1257,17.3501-21.1603,25.6237-30.1309,25.7596-16.5807,1.1608,34.3603-69.9529,152.826,64.9785-108.2453,99.0238-168.1707,103.8564-184.5262,17.6939-13.6047,34.5193-21.4852,51.2054-23.674-.3633-11.9747-.7941-23.15-1.3023-33.605-27.4315,5.4557-55.4844,31.472-88.8502,78.0782Z" style="fill:#000; stroke-width:0px;"/><path d="M409.8974,400.9995c-6.7549-25.98-13.8451-64.8807-21.6229-116.7078,6.7018,44.6569,9.7287,85.8512,8.5484,125.0742,4.6481-1.3478,8.9632-4.0153,13.0745-8.3664Z" style="fill:#000; stroke-width:0px;"/><path d="M529.1755,669.1303c-33.7593-47.1558-62.0795-73.2295-89.8203-78.2584-.2937,11.038-.5395,22.2622-.7418,33.7361,16.8206,2.1122,33.7766,10.0068,51.6156,23.7231,4.8326,16.3553,38.878,76.2808,103.8565,184.5262-71.1137-118.4657-95.7125-169.4067-69.9529-152.826,8.2736,8.9706,16.7929,19.0052,25.6237,30.1309-8.3992-10.582-15.9304-19.9323-22.5903-28.0339,21.1398,15.4478,68.2981,65.685,142.9112,150.7291-182.3488-207.8416-230.4779-340.7241-198.6869-548.5656-7.3116,47.8012-14.0063,84.5995-20.361,110.4131-3.5134,38.0846-6.1787,73.6951-8.1591,109.389,14.236,52.2593,41.05,101.8229,86.3052,165.0365Z" style="fill:#000; stroke-width:0px;"/><path d="M439.3552,590.8719c.7942-29.8461,1.9374-58.3415,3.5151-86.7781,1.9804-35.6939,4.6457-71.3044,8.1591-109.389,8.1809-88.6784,20.9664-190.7905,40.4567-338.7445-39.1751,230.3556-56.6436,318.64-81.5887,345.0391-4.1113,4.351-8.4264,7.0186-13.0745,8.3664-9.1035,2.6398-19.4863.2118-32.1317-4.5939,12.0689,16.0158,21.6214,30.1503,29.1734,46.4407,8.232,17.7572,14.0854,38.0822,18.2228,66.2008,2.9401,19.9818,5.0143,43.9034,6.46,73.6387.5083,10.4551.939,21.6303,1.3023,33.605,1.6138,53.1886,1.9003,122.1641,1.7653,214.0983,6.3014-274.77,7.6974-270.9371,17.288,47.4668-1.1126-107.858-1.5579-189.6645-.2896-261.6142.2023-11.4739.4481-22.6982.7418-33.7361Z" style="fill:#ff9421; stroke-width:0px;"/><path d="M771.8272,617.4216h133.2867v78.5435h-235.0367v-417.7099h101.7499v339.1665Z" style="fill:#2b3035; stroke-width:0px;"/><path d="M953.0081,439.508c12.8852-25.7832,30.4397-45.6128,52.6603-59.5046,22.211-13.8791,47.0067-20.8266,74.3775-20.8266,23.4017,0,43.9299,4.7629,61.5859,14.2824,17.6466,9.5195,31.2399,22.0173,40.7594,37.4872v-47.0067h101.7499v332.0253h-101.7499v-47.0067c-9.9195,15.4699-23.7082,27.9646-41.3547,37.4872-17.6545,9.5195-38.1842,14.2792-61.5844,14.2792-26.9819,0-51.5727-7.0364-73.7837-21.1219-22.2205-14.076-39.775-34.1119-52.6603-60.0983-12.8964-25.9769-19.339-56.0276-19.339-90.1491s6.4426-64.0579,19.339-89.8474ZM1161.2677,469.8541c-14.0855-14.6729-31.2383-22.0173-51.4695-22.0173s-37.3936,7.2428-51.4695,21.7188c-14.0855,14.4856-21.1235,34.4199-21.1235,59.7999,0,25.3926,7.038,45.5207,21.1235,60.3968,14.076,14.8761,31.2383,22.3126,51.4695,22.3126s37.384-7.3349,51.4695-22.0141c14.076-14.6729,21.1235-34.7089,21.1235-60.0983s-7.0475-45.4191-21.1235-60.0983Z" style="fill:#ff9421; stroke-width:0px;"/><path d="M1365.3535,313.6594c-11.304-10.507-16.9575-23.5033-16.9575-38.9764,0-15.8605,5.6536-29.0537,16.9575-39.567,11.3071-10.507,25.8848-15.7684,43.7362-15.7684,17.4513,0,31.8353,5.2614,43.1392,15.7684,11.3071,10.5133,16.9591,23.7066,16.9591,39.567,0,15.4731-5.652,28.4695-16.9591,38.9764-11.304,10.5133-25.6879,15.7684-43.1392,15.7684-17.8514,0-32.429-5.2551-43.7362-15.7684ZM1459.6653,363.9398v332.0253h-101.7484v-332.0253h101.7484Z" style="fill:#ff9421; stroke-width:0px;"/><path d="M1591.166,685.8486c-22.6111-9.91-40.4593-23.5033-53.5509-40.7578-13.0916-17.2576-20.436-36.595-22.0173-58.0154h100.5608c1.1907,11.5104,6.5442,20.8266,16.0669,27.9646,9.5195,7.1412,21.214,10.7102,35.1058,10.7102,12.6916,0,22.5095-2.4704,29.4538-7.4365,6.9348-4.9566,10.4117-11.3992,10.4117-19.3374,0-9.5226-4.9629-16.559-14.873-21.1251-9.9227-4.5565-25.9864-9.6147-48.1974-15.1714-23.8018-5.5535-43.6441-11.3992-59.5046-17.5561-15.87-6.1441-29.5554-15.8605-41.0562-29.1553-11.5104-13.2853-17.2576-31.2383-17.2576-53.8494,0-19.0421,5.2551-36.3918,15.7684-52.0649,10.507-15.6668,25.9769-28.0599,46.4129-37.1888,20.4265-9.1226,44.7205-13.6886,72.8915-13.6886,41.6532,0,74.4728,10.3228,98.4778,30.943,23.9955,20.6297,37.7857,48.0006,41.3547,82.1125h-94.0166c-1.5876-11.5008-6.6458-20.6202-15.1714-27.3708-8.5351-6.7411-19.7375-10.1132-33.6198-10.1132-11.9009,0-21.0298,2.2862-27.3708,6.8427-6.3505,4.5629-9.5195,10.8118-9.5195,18.7436,0,9.5195,5.055,16.6606,15.1714,21.4204,10.1164,4.7597,25.8848,9.5195,47.3052,14.2792,24.5925,6.3505,44.6284,12.5995,60.0983,18.7436,15.4699,6.1568,29.0537,16.0669,40.7578,29.7523,11.6977,13.6854,17.7498,32.0385,18.1498,55.0401,0,19.4422-5.4583,36.7982-16.3622,52.0649-10.9166,15.2762-26.5834,27.2787-47.0099,35.998-20.4329,8.7225-44.1331,13.0916-71.1038,13.0916-28.9616,0-54.7448-4.9534-77.3559-14.8761Z" style="fill:#2b3035; stroke-width:0px;"/><path d="M1923.1944,685.8486c-22.6111-9.91-40.4625-23.5033-53.5541-40.7578-13.0916-17.2576-20.436-36.595-22.0173-58.0154h100.5608c1.1907,11.5104,6.5474,20.8266,16.0669,27.9646,9.5195,7.1412,21.2172,10.7102,35.1058,10.7102,12.6916,0,22.5095-2.4704,29.4538-7.4365,6.9348-4.9566,10.4149-11.3992,10.4149-19.3374,0-9.5226-4.9661-16.559-14.8761-21.1251-9.9227-4.5565-25.9864-9.6147-48.1974-15.1714-23.8018-5.5535-43.6441-11.3992-59.5046-17.5561-15.87-6.1441-29.5554-15.8605-41.0562-29.1553-11.5104-13.2853-17.2544-31.2383-17.2544-53.8494,0-19.0421,5.2519-36.3918,15.7652-52.0649,10.507-15.6668,25.9769-28.0599,46.4129-37.1888,20.4265-9.1226,44.7205-13.6886,72.8915-13.6886,41.6532,0,74.4728,10.3228,98.4778,30.943,23.9955,20.6297,37.7857,48.0006,41.3547,82.1125h-94.0134c-1.5908-11.5008-6.649-20.6202-15.1746-27.3708-8.5351-6.7411-19.7375-10.1132-33.6198-10.1132-11.9009,0-21.0298,2.2862-27.3708,6.8427-6.3505,4.5629-9.5195,10.8118-9.5195,18.7436,0,9.5195,5.0582,16.6606,15.1714,21.4204,10.1164,4.7597,25.8848,9.5195,47.3052,14.2792,24.5925,6.3505,44.6284,12.5995,60.0983,18.7436,15.4699,6.1568,29.0537,16.0669,40.7609,29.7523,11.6945,13.6854,17.7466,32.0385,18.1467,55.0401,0,19.4422-5.4583,36.7982-16.3622,52.0649-10.9166,15.2762-26.5802,27.2787-47.0067,35.998-20.436,8.7225-44.1363,13.0916-71.107,13.0916-28.9616,0-54.7417-4.9534-77.3528-14.8761Z" style="fill:#2b3035; stroke-width:0px;"/><path d="M2232.362,287.0678c0,25.1787-19.7646,44.9424-45.4844,44.9424-25.4492,0-45.7539-19.7637-45.7539-44.9424,0-24.6367,20.3047-44.4014,45.7539-44.4014,25.7197,0,45.4844,19.7646,45.4844,44.4014ZM2152.4938,287.0678c0,19.7637,14.6201,35.4668,34.6543,35.4668,19.4932,0,33.8428-15.7031,33.8428-35.1963,0-19.7637-14.3496-35.7373-34.1133-35.7373s-34.3838,15.9736-34.3838,35.4668ZM2179.8385,310.351h-10.2881v-44.4004c4.0615-.8125,9.7471-1.3545,17.0566-1.3545,8.3926,0,12.1836,1.3545,15.4316,3.249,2.4365,1.8955,4.332,5.415,4.332,9.7471,0,4.873-3.79,8.6631-9.2051,10.2881v.541c4.332,1.624,6.7686,4.873,8.1221,10.8291,1.3535,6.7686,2.166,9.4766,3.249,11.1006h-11.1006c-1.3535-1.624-2.166-5.6855-3.5195-10.8291-.8115-4.874-3.5195-7.0391-9.2051-7.0391h-4.873v17.8682ZM2180.109,285.1723h4.874c5.6846,0,10.2871-1.8945,10.2871-6.4971,0-4.0615-2.9775-6.7686-9.4756-6.7686-2.707,0-4.6025.2705-5.6855.541v12.7246Z" style="fill:#000; stroke-width:0px;"/><path d="M321.2527,216.7049c-11.304-10.507-16.9575-23.5033-16.9575-38.9764,0-15.8605,5.6536-29.0537,16.9575-39.567,11.3071-10.507,25.8848-15.7684,43.7362-15.7684,17.4513,0,31.8353,5.2614,43.1392,15.7684,11.3071,10.5133,16.9591,23.7066,16.9591,39.567,0,15.4731-5.652,28.4695-16.9591,38.9764-11.304,10.5133-25.6879,15.7684-43.1392,15.7684-17.8514,0-32.429-5.2551-43.7362-15.7684Z" style="fill:#ff9421; stroke-width:0px;"/></svg>